{
	"accessors": {
		"Mesh_48_Normals": {
			"bufferView": "Mesh_48_Normals_Buffer",
			"byteOffset": 0,
			"byteStride": 12,
			"componentType": 5126,
			"count": 12634,
			"max": [
				0.999599,
				0.999581,
				0.998436
			],
			"min": [
				-0.999084,
				-1,
				-0.999833
			],
			"name": "Mesh_48_Normals",
			"type": "VEC3"
		},
		"Mesh_48_Polygons": {
			"bufferView": "Mesh_48_Polygons_Buffer",
			"byteOffset": 0,
			"byteStride": 2,
			"componentType": 5123,
			"count": 12636,
			"name": "Mesh_48_Polygons",
			"type": "SCALAR"
		},
		"Mesh_48_Positions": {
			"bufferView": "Mesh_48_Positions_Buffer",
			"byteOffset": 0,
			"byteStride": 12,
			"componentType": 5126,
			"count": 12634,
			"max": [
				96.1799,
				163.97,
				53.9252
			],
			"min": [
				-69.2985,
				9.92937,
				-61.3282
			],
			"name": "Mesh_48_Positions",
			"type": "VEC3"
		},
		"Mesh_48_TEXCOORD_0": {
			"bufferView": "Mesh_48_TEXCOORD_0_Buffer",
			"byteOffset": 0,
			"byteStride": 8,
			"componentType": 5126,
			"count": 12634,
			"max": [
				0.983346,
				0.980037
			],
			"min": [
				0.026409,
				0.019963
			],
			"name": "Mesh_48_TEXCOORD_0",
			"type": "VEC2"
		}
	},
	"animations": {
	},
	"asset": {
		"copyright": "",
		"generator": "FBX GLTF Exporter v1.0",
		"premultipliedAlpha": 0,
		"profile": {
			"api": "WebGL",
			"version": "1.0.3"
		},
		"version": "1.0"
	},
	"bufferViews": {
		"Mesh_48_Normals_Buffer": {
			"buffer": "duck",
			"byteLength": 151608,
			"byteOffset": 151608,
			"name": "Mesh_48_Normals_Buffer",
			"target": 34962
		},
		"Mesh_48_Polygons_Buffer": {
			"buffer": "duck",
			"byteLength": 25272,
			"byteOffset": 404288,
			"name": "Mesh_48_Polygons_Buffer",
			"target": 34963
		},
		"Mesh_48_Positions_Buffer": {
			"buffer": "duck",
			"byteLength": 151608,
			"byteOffset": 0,
			"name": "Mesh_48_Positions_Buffer",
			"target": 34962
		},
		"Mesh_48_TEXCOORD_0_Buffer": {
			"buffer": "duck",
			"byteLength": 101072,
			"byteOffset": 303216,
			"name": "Mesh_48_TEXCOORD_0_Buffer",
			"target": 34962
		}
	},
	"buffers": {
		"duck": {
			"byteLength": 429560,
			"name": "duck",
			"type": "arraybuffer",
			"uri": "duck.bin"
		}
	},
	"cameras": {
	},
	"images": {
		"file2": {
			"name": "file2",
			"uri": "duckCM.png"
		}
	},
	"lights": {
	},
	"materials": {
		"blinn3": {
			"name": "blinn3",
			"technique": "blinn3_technique_0",
			"values": {
				"ambient": [
					0,
					0,
					0,
					1
				],
				"diffuse": "texture_file2",
				"emission": [
					0,
					0,
					0,
					1
				],
				"reflective": [
					0,
					0,
					0,
					1
				],
				"reflectivity": 0.5,
				"shininess": 2,
				"specular": [
					0,
					0,
					0,
					1
				],
				"transparency": 1,
				"transparent": [
					0,
					0,
					0,
					1
				]
			}
		}
	},
	"meshes": {
		"Mesh_48": {
			"name": "Mesh_48",
			"primitives": [
				{
					"attributes": {
						"NORMAL": "Mesh_48_Normals",
						"POSITION": "Mesh_48_Positions",
						"TEXCOORD_0": "Mesh_48_TEXCOORD_0"
					},
					"indices": "Mesh_48_Polygons",
					"material": "blinn3",
					"mode": 4
				}
			]
		}
	},
	"nodes": {
		"LOD3sp_42": {
			"children": [
			],
			"matrix": [
				0.01,
				0,
				0,
				0,
				0,
				0.01,
				0,
				0,
				0,
				0,
				0.01,
				0,
				0,
				0,
				0,
				1
			],
			"meshes": [
				"Mesh_48"
			],
			"name": "LOD3sp_42"
		},
		"RootNode_10": {
			"children": [
				"LOD3sp_42"
			],
			"matrix": [
				1,
				0,
				0,
				0,
				0,
				1,
				0,
				0,
				0,
				0,
				1,
				0,
				0,
				0,
				0,
				1
			],
			"name": "RootNode_10"
		}
	},
	"programs": {
		"program_0": {
			"attributes": [
				"a_normal",
				"a_position",
				"a_texcoord0"
			],
			"fragmentShader": "program_0FS",
			"name": "program_0",
			"vertexShader": "program_0VS"
		}
	},
	"samplers": {
		"sampler_file2": {
			"magFilter": 9729,
			"minFilter": 9987,
			"name": "sampler_file2",
			"wrapS": 10497,
			"wrapT": 10497
		}
	},
	"scene": "duck",
	"scenes": {
		"duck": {
			"nodes": [
				"RootNode_10"
			]
		}
	},
	"shaders": {
		"program_0FS": {
			"type": 35632,
			"uri": "program_0FS.glsl"
		},
		"program_0VS": {
			"type": 35633,
			"uri": "program_0VS.glsl"
		}
	},
	"skins": {
	},
	"techniques": {
		"blinn3_technique_0": {
			"attributes": {
				"a_normal": "normal",
				"a_position": "position",
				"a_texcoord0": "texcoord0"
			},
			"extras": {
				"doubleSided": 0,
				"lightingModel": "Phong",
				"texcoordBindings": {
					"diffuse": "TEXCOORD_0"
				}
			},
			"parameters": {
				"ambient": {
					"type": 35666
				},
				"diffuse": {
					"type": 35678
				},
				"emission": {
					"type": 35666
				},
				"modelViewMatrix": {
					"semantic": "MODELVIEW",
					"type": 35676
				},
				"normal": {
					"semantic": "NORMAL",
					"type": 35665
				},
				"normalMatrix": {
					"semantic": "MODELVIEWINVERSETRANSPOSE",
					"type": 35675
				},
				"position": {
					"semantic": "POSITION",
					"type": 35665
				},
				"projectionMatrix": {
					"semantic": "PROJECTION",
					"type": 35676
				},
				"reflective": {
					"type": 35666
				},
				"reflectivity": {
					"type": 5126
				},
				"shininess": {
					"type": 5126
				},
				"specular": {
					"type": 35666
				},
				"texcoord0": {
					"semantic": "TEXCOORD_0",
					"type": 35664
				},
				"transparency": {
					"type": 5126
				},
				"transparent": {
					"type": 35666
				}
			},
			"program": "program_0",
			"states": {
				"enable": [
					2884,
					2929
				]
			},
			"uniforms": {
				"u_ambient": "ambient",
				"u_diffuse": "diffuse",
				"u_emission": "emission",
				"u_modelViewMatrix": "modelViewMatrix",
				"u_normalMatrix": "normalMatrix",
				"u_projectionMatrix": "projectionMatrix",
				"u_reflective": "reflective",
				"u_reflectivity": "reflectivity",
				"u_shininess": "shininess",
				"u_specular": "specular",
				"u_transparency": "transparency",
				"u_transparent": "transparent"
			}
		}
	},
	"textures": {
		"texture_file2": {
			"format": 6408,
			"internalFormat": 6408,
			"name": "texture_file2",
			"sampler": "sampler_file2",
			"source": "file2",
			"target": 3553,
			"type": 5121
		}
	}
}